# Blender 4.3.2
# www.blender.org
g plastic_Mesh
v 0.272399 0.054543 -0.400029
v -0.227601 0.054543 -0.400029
v -0.227596 0.054543 -0.300016
v -0.102573 0.054543 -0.259994
v -0.102593 0.054543 -0.220512
v -0.227578 0.054543 -0.199995
v -0.227585 0.054543 0.148160
v -0.352500 0.054543 0.178126
v -0.352596 0.054543 0.230316
v -0.227560 0.054543 0.280269
v -0.227593 0.054543 0.399990
v 0.272433 0.054543 0.400006
v 0.272404 0.054543 0.280324
v 0.147412 0.054543 0.230330
v 0.147500 0.054543 0.178212
v 0.272463 0.054543 0.148146
v 0.272441 0.054543 -0.199985
v 0.397419 0.054543 -0.219939
v 0.397377 0.054543 -0.260043
v 0.272411 0.054543 -0.300023
v 0.272399 0.084543 -0.400029
v -0.227601 0.084543 -0.400029
v -0.227596 0.084543 -0.300016
v -0.102573 0.084543 -0.259994
v -0.102593 0.084543 -0.220512
v -0.227578 0.084543 -0.199995
v -0.227585 0.084543 0.148160
v -0.352500 0.084543 0.178126
v -0.352596 0.084543 0.230316
v -0.227560 0.084543 0.280269
v -0.227593 0.084543 0.399990
v 0.272433 0.084543 0.400006
v 0.272404 0.084543 0.280324
v 0.147412 0.084543 0.230330
v 0.147500 0.084543 0.178212
v 0.272463 0.084543 0.148146
v 0.272441 0.084543 -0.199985
v 0.397419 0.084543 -0.219939
v 0.397377 0.084543 -0.260043
v 0.272411 0.084543 -0.300023
v 0.272963 0.020000 -0.404331
v -0.226960 0.020000 -0.395605
v -0.225210 0.020000 -0.295607
v -0.099507 0.020000 -0.257773
v -0.098838 0.020000 -0.218296
v -0.223446 0.020000 -0.195602
v -0.217377 0.020000 0.152500
v -0.341750 0.020000 0.184642
v -0.340935 0.020000 0.236826
v -0.215046 0.020000 0.284589
v -0.212989 0.020000 0.404293
v 0.286961 0.020000 0.395582
v 0.284843 0.020000 0.275918
v 0.158997 0.020000 0.228113
v 0.158175 0.020000 0.176002
v 0.282595 0.020000 0.143759
v 0.276497 0.020000 -0.204318
v 0.401108 0.020000 -0.226451
v 0.400366 0.020000 -0.266547
v 0.274721 0.020000 -0.304341
v 0.272963 0.050000 -0.404331
v -0.226960 0.050000 -0.395605
v -0.225210 0.050000 -0.295607
v -0.099507 0.050000 -0.257773
v -0.098838 0.050000 -0.218296
v -0.223446 0.050000 -0.195602
v -0.217377 0.050000 0.152500
v -0.341750 0.050000 0.184642
v -0.340935 0.050000 0.236826
v -0.215046 0.050000 0.284589
v -0.212989 0.050000 0.404293
v 0.286961 0.050000 0.395582
v 0.284843 0.050000 0.275918
v 0.158997 0.050000 0.228113
v 0.158175 0.050000 0.176002
v 0.282595 0.050000 0.143759
v 0.276497 0.050000 -0.204318
v 0.401108 0.050000 -0.226451
v 0.400366 0.050000 -0.266547
v 0.274721 0.050000 -0.304341
v 0.273453 -0.014543 -0.408642
v -0.226242 -0.014543 -0.391192
v -0.222747 -0.014543 -0.291240
v -0.096403 -0.014543 -0.255606
v -0.095045 -0.014543 -0.216147
v -0.219238 -0.014543 -0.191281
v -0.207094 -0.014543 0.156662
v -0.330888 -0.014543 0.190970
v -0.329162 -0.014543 0.243131
v -0.202459 -0.014543 0.288690
v -0.198313 -0.014543 0.408340
v 0.301409 -0.014543 0.390905
v 0.297202 -0.014543 0.271296
v 0.170542 -0.014543 0.225695
v 0.168811 -0.014543 0.173606
v 0.292648 -0.014543 0.139196
v 0.280477 -0.014543 -0.208722
v 0.404683 -0.014543 -0.233025
v 0.403241 -0.014543 -0.273103
v 0.276955 -0.014543 -0.308698
v 0.273453 0.015457 -0.408642
v -0.226242 0.015457 -0.391192
v -0.222747 0.015457 -0.291240
v -0.096403 0.015457 -0.255606
v -0.095045 0.015457 -0.216147
v -0.219238 0.015457 -0.191281
v -0.207094 0.015457 0.156662
v -0.330888 0.015457 0.190970
v -0.329162 0.015457 0.243131
v -0.202459 0.015457 0.288690
v -0.198313 0.015457 0.408340
v 0.301409 0.015457 0.390905
v 0.297202 0.015457 0.271296
v 0.170542 0.015457 0.225695
v 0.168811 0.015457 0.173606
v 0.292648 0.015457 0.139196
v 0.280477 0.015457 -0.208722
v 0.404683 0.015457 -0.233025
v 0.403241 0.015457 -0.273103
v 0.276955 0.015457 -0.308698
v 0.273867 -0.049086 -0.412961
v -0.225447 -0.049086 -0.386793
v -0.220208 -0.049086 -0.286917
v -0.093262 -0.049086 -0.253493
v -0.091216 -0.049086 -0.214064
v -0.214955 -0.049086 -0.187035
v -0.196741 -0.049086 0.160644
v -0.319917 -0.049086 0.197107
v -0.317281 -0.049086 0.249230
v -0.189802 -0.049086 0.292571
v -0.183569 -0.049086 0.412130
v 0.315773 -0.049086 0.385976
v 0.309480 -0.049086 0.266459
v 0.182043 -0.049086 0.223075
v 0.179403 -0.049086 0.171024
v 0.302621 -0.049086 0.134459
v 0.284379 -0.049086 -0.213194
v 0.408142 -0.049086 -0.239661
v 0.406001 -0.049086 -0.279707
v 0.279113 -0.049086 -0.313093
v 0.273867 -0.019086 -0.412961
v -0.225447 -0.019086 -0.386793
v -0.220208 -0.019086 -0.286917
v -0.093262 -0.019086 -0.253493
v -0.091216 -0.019086 -0.214064
v -0.214955 -0.019086 -0.187035
v -0.196741 -0.019086 0.160644
v -0.319917 -0.019086 0.197107
v -0.317281 -0.019086 0.249230
v -0.189802 -0.019086 0.292571
v -0.183569 -0.019086 0.412130
v 0.315773 -0.019086 0.385976
v 0.309480 -0.019086 0.266459
v 0.182043 -0.019086 0.223075
v 0.179403 -0.019086 0.171024
v 0.302621 -0.019086 0.134459
v 0.284379 -0.019086 -0.213194
v 0.408142 -0.019086 -0.239661
v 0.406001 -0.019086 -0.279707
v 0.279113 -0.019086 -0.313093
v 0.274206 -0.083630 -0.417287
v -0.224576 -0.083630 -0.382408
v -0.217594 -0.083630 -0.282639
v -0.090084 -0.083630 -0.251435
v -0.087350 -0.083630 -0.212048
v -0.210599 -0.083630 -0.182864
v -0.186320 -0.083630 0.164444
v -0.308840 -0.083630 0.203051
v -0.305295 -0.083630 0.255120
v -0.177079 -0.083630 0.296230
v -0.168761 -0.083630 0.415662
v 0.330049 -0.083630 0.380797
v 0.321671 -0.083630 0.261408
v 0.193496 -0.083630 0.220256
v 0.189948 -0.083630 0.168258
v 0.312509 -0.083630 0.129548
v 0.288203 -0.083630 -0.217733
v 0.411485 -0.083630 -0.246357
v 0.408645 -0.083630 -0.286359
v 0.281194 -0.083630 -0.317525
v 0.274206 -0.053630 -0.417287
v -0.224576 -0.053630 -0.382408
v -0.217594 -0.053630 -0.282639
v -0.090084 -0.053630 -0.251435
v -0.087350 -0.053630 -0.212048
v -0.210599 -0.053630 -0.182864
v -0.186320 -0.053630 0.164444
v -0.308840 -0.053630 0.203051
v -0.305295 -0.053630 0.255120
v -0.177079 -0.053630 0.296230
v -0.168761 -0.053630 0.415662
v 0.330049 -0.053630 0.380797
v 0.321671 -0.053630 0.261408
v 0.193496 -0.053630 0.220256
v 0.189948 -0.053630 0.168258
v 0.312509 -0.053630 0.129548
v 0.288203 -0.053630 -0.217733
v 0.411485 -0.053630 -0.246357
v 0.408645 -0.053630 -0.286359
v 0.281194 -0.053630 -0.317525
vn -0.0000 -1.0000 -0.0000
vn -0.0000 1.0000 -0.0000
vn -0.0000 -0.0000 -1.0000
vn -1.0000 -0.0000 0.0001
vn -0.3049 -0.0000 0.9524
vn -1.0000 -0.0000 -0.0005
vn -0.1620 -0.0000 -0.9868
vn -1.0000 -0.0000 -0.0000
vn -0.2333 -0.0000 -0.9724
vn -1.0000 -0.0000 -0.0018
vn -0.3710 -0.0000 0.9286
vn -1.0000 -0.0000 -0.0003
vn 1.0000 -0.0000 -0.0002
vn 0.3714 -0.0000 -0.9285
vn 1.0000 -0.0000 0.0017
vn 0.2339 -0.0000 0.9723
vn 1.0000 -0.0000 -0.0001
vn 0.1577 -0.0000 0.9875
vn 1.0000 -0.0000 -0.0011
vn 0.3047 -0.0000 -0.9524
vn -0.0000 -0.0000 1.0000
vn -0.0175 -0.0000 -0.9998
vn -0.9998 -0.0000 0.0175
vn -0.2882 -0.0000 0.9576
vn -0.9999 -0.0000 0.0169
vn -0.1792 -0.0000 -0.9838
vn -0.9998 -0.0000 0.0174
vn -0.2502 -0.0000 -0.9682
vn -0.9999 -0.0000 0.0156
vn -0.3547 -0.0000 0.9350
vn -0.9999 -0.0000 0.0172
vn 0.9998 -0.0000 -0.0177
vn 0.3551 -0.0000 -0.9348
vn 0.9999 -0.0000 -0.0158
vn 0.2509 -0.0000 0.9680
vn 0.9998 -0.0000 -0.0175
vn 0.1749 -0.0000 0.9846
vn 0.9998 -0.0000 -0.0185
vn 0.2880 -0.0000 -0.9576
vn 0.9998 -0.0000 -0.0176
vn 0.0174 -0.0000 0.9998
vn -0.0349 -0.0000 -0.9994
vn -0.9994 -0.0000 0.0350
vn -0.2715 -0.0000 0.9625
vn -0.9994 -0.0000 0.0344
vn -0.1963 -0.0000 -0.9805
vn -0.9994 -0.0000 0.0349
vn -0.2671 -0.0000 -0.9637
vn -0.9995 -0.0000 0.0331
vn -0.3384 -0.0000 0.9410
vn -0.9994 -0.0000 0.0346
vn 0.9994 -0.0000 -0.0351
vn 0.3387 -0.0000 -0.9409
vn 0.9994 -0.0000 -0.0332
vn 0.2677 -0.0000 0.9635
vn 0.9994 -0.0000 -0.0350
vn 0.1920 -0.0000 0.9814
vn 0.9994 -0.0000 -0.0360
vn 0.2713 -0.0000 -0.9625
vn 0.0349 -0.0000 0.9994
vn -0.0523 -0.0000 -0.9986
vn -0.9986 -0.0000 0.0524
vn -0.2546 -0.0000 0.9670
vn -0.9987 -0.0000 0.0518
vn -0.2134 -0.0000 -0.9770
vn -0.9986 -0.0000 0.0523
vn -0.2838 -0.0000 -0.9589
vn -0.9987 -0.0000 0.0505
vn -0.3219 -0.0000 0.9468
vn -0.9986 -0.0000 0.0521
vn 0.9986 -0.0000 -0.0526
vn 0.3223 -0.0000 -0.9466
vn 0.9987 -0.0000 -0.0507
vn 0.2845 -0.0000 0.9587
vn 0.9986 -0.0000 -0.0524
vn 0.2091 -0.0000 0.9779
vn 0.9986 -0.0000 -0.0534
vn 0.2545 -0.0000 -0.9671
vn 0.9986 -0.0000 -0.0525
vn 0.0523 -0.0000 0.9986
vn -0.0698 -0.0000 -0.9976
vn -0.9976 -0.0000 0.0698
vn -0.2377 -0.0000 0.9713
vn -0.9976 -0.0000 0.0692
vn -0.2304 -0.0000 -0.9731
vn -0.9976 -0.0000 0.0697
vn -0.3005 -0.0000 -0.9538
vn -0.9977 -0.0000 0.0679
vn -0.3053 -0.0000 0.9523
vn -0.9976 -0.0000 0.0695
vn 0.9975 -0.0000 -0.0700
vn 0.3057 -0.0000 -0.9521
vn 0.9977 -0.0000 -0.0681
vn 0.3012 -0.0000 0.9536
vn 0.9976 -0.0000 -0.0698
vn 0.2262 -0.0000 0.9741
vn 0.9975 -0.0000 -0.0708
vn 0.2375 -0.0000 -0.9714
vn 0.9976 -0.0000 -0.0699
vn 0.0697 -0.0000 0.9976
vt 0.000000 0.000000
s 0
g off
f 10/1/1 7/1/1 5/1/1
f 27/1/2 30/1/2 35/1/2
f 2/1/3 21/1/3 1/1/3
f 3/1/4 22/1/4 2/1/4
f 4/1/5 23/1/5 3/1/5
f 5/1/6 24/1/6 4/1/6
f 6/1/7 25/1/7 5/1/7
f 7/1/8 26/1/8 6/1/8
f 8/1/9 27/1/9 7/1/9
f 9/1/10 28/1/10 8/1/10
f 10/1/11 29/1/11 9/1/11
f 11/1/12 30/1/12 10/1/12
f 13/1/13 32/1/13 12/1/13
f 14/1/14 33/1/14 13/1/14
f 15/1/15 34/1/15 14/1/15
f 16/1/16 35/1/16 15/1/16
f 17/1/17 36/1/17 16/1/17
f 18/1/18 37/1/18 17/1/18
f 19/1/19 38/1/19 18/1/19
f 20/1/20 39/1/20 19/1/20
f 1/1/17 40/1/17 20/1/17
f 12/1/21 31/1/21 11/1/21
f 50/1/1 47/1/1 45/1/1
f 67/1/2 70/1/2 75/1/2
f 42/1/22 61/1/22 41/1/22
f 43/1/23 62/1/23 42/1/23
f 44/1/24 63/1/24 43/1/24
f 45/1/25 64/1/25 44/1/25
f 46/1/26 65/1/26 45/1/26
f 47/1/27 66/1/27 46/1/27
f 48/1/28 67/1/28 47/1/28
f 49/1/29 68/1/29 48/1/29
f 50/1/30 69/1/30 49/1/30
f 51/1/31 70/1/31 50/1/31
f 53/1/32 72/1/32 52/1/32
f 54/1/33 73/1/33 53/1/33
f 55/1/34 74/1/34 54/1/34
f 56/1/35 75/1/35 55/1/35
f 57/1/36 76/1/36 56/1/36
f 58/1/37 77/1/37 57/1/37
f 59/1/38 78/1/38 58/1/38
f 60/1/39 79/1/39 59/1/39
f 41/1/40 80/1/40 60/1/40
f 52/1/41 71/1/41 51/1/41
f 90/1/1 87/1/1 85/1/1
f 107/1/2 110/1/2 115/1/2
f 82/1/42 101/1/42 81/1/42
f 83/1/43 102/1/43 82/1/43
f 84/1/44 103/1/44 83/1/44
f 85/1/45 104/1/45 84/1/45
f 86/1/46 105/1/46 85/1/46
f 87/1/47 106/1/47 86/1/47
f 88/1/48 107/1/48 87/1/48
f 89/1/49 108/1/49 88/1/49
f 90/1/50 109/1/50 89/1/50
f 91/1/51 110/1/51 90/1/51
f 93/1/52 112/1/52 92/1/52
f 94/1/53 113/1/53 93/1/53
f 95/1/54 114/1/54 94/1/54
f 96/1/55 115/1/55 95/1/55
f 97/1/56 116/1/56 96/1/56
f 98/1/57 117/1/57 97/1/57
f 99/1/58 118/1/58 98/1/58
f 100/1/59 119/1/59 99/1/59
f 81/1/56 120/1/56 100/1/56
f 92/1/60 111/1/60 91/1/60
f 130/1/1 127/1/1 125/1/1
f 147/1/2 150/1/2 155/1/2
f 122/1/61 141/1/61 121/1/61
f 123/1/62 142/1/62 122/1/62
f 124/1/63 143/1/63 123/1/63
f 125/1/64 144/1/64 124/1/64
f 126/1/65 145/1/65 125/1/65
f 127/1/66 146/1/66 126/1/66
f 128/1/67 147/1/67 127/1/67
f 129/1/68 148/1/68 128/1/68
f 130/1/69 149/1/69 129/1/69
f 131/1/70 150/1/70 130/1/70
f 133/1/71 152/1/71 132/1/71
f 134/1/72 153/1/72 133/1/72
f 135/1/73 154/1/73 134/1/73
f 136/1/74 155/1/74 135/1/74
f 137/1/75 156/1/75 136/1/75
f 138/1/76 157/1/76 137/1/76
f 139/1/77 158/1/77 138/1/77
f 140/1/78 159/1/78 139/1/78
f 121/1/79 160/1/79 140/1/79
f 132/1/80 151/1/80 131/1/80
f 170/1/1 167/1/1 165/1/1
f 187/1/2 190/1/2 195/1/2
f 162/1/81 181/1/81 161/1/81
f 163/1/82 182/1/82 162/1/82
f 164/1/83 183/1/83 163/1/83
f 165/1/84 184/1/84 164/1/84
f 166/1/85 185/1/85 165/1/85
f 167/1/86 186/1/86 166/1/86
f 168/1/87 187/1/87 167/1/87
f 169/1/88 188/1/88 168/1/88
f 170/1/89 189/1/89 169/1/89
f 171/1/90 190/1/90 170/1/90
f 173/1/91 192/1/91 172/1/91
f 174/1/92 193/1/92 173/1/92
f 175/1/93 194/1/93 174/1/93
f 176/1/94 195/1/94 175/1/94
f 177/1/95 196/1/95 176/1/95
f 178/1/96 197/1/96 177/1/96
f 179/1/97 198/1/97 178/1/97
f 180/1/98 199/1/98 179/1/98
f 161/1/99 200/1/99 180/1/99
f 172/1/100 191/1/100 171/1/100
f 3/1/1 2/1/1 1/1/1
f 20/1/1 19/1/1 18/1/1
f 3/1/1 1/1/1 20/1/1
f 4/1/1 3/1/1 20/1/1
f 20/1/1 18/1/1 17/1/1
f 17/1/1 16/1/1 15/1/1
f 14/1/1 13/1/1 12/1/1
f 20/1/1 17/1/1 15/1/1
f 14/1/1 12/1/1 11/1/1
f 4/1/1 20/1/1 15/1/1
f 15/1/1 14/1/1 11/1/1
f 10/1/1 9/1/1 8/1/1
f 15/1/1 11/1/1 10/1/1
f 5/1/1 4/1/1 15/1/1
f 7/1/1 6/1/1 5/1/1
f 10/1/1 8/1/1 7/1/1
f 5/1/1 15/1/1 10/1/1
f 21/1/2 22/1/2 23/1/2
f 21/1/2 23/1/2 24/1/2
f 38/1/2 39/1/2 40/1/2
f 40/1/2 21/1/2 24/1/2
f 25/1/2 26/1/2 27/1/2
f 40/1/2 24/1/2 25/1/2
f 37/1/2 38/1/2 40/1/2
f 35/1/2 36/1/2 37/1/2
f 32/1/2 33/1/2 34/1/2
f 35/1/2 37/1/2 40/1/2
f 31/1/2 32/1/2 34/1/2
f 35/1/2 40/1/2 25/1/2
f 31/1/2 34/1/2 35/1/2
f 28/1/2 29/1/2 30/1/2
f 30/1/2 31/1/2 35/1/2
f 35/1/2 25/1/2 27/1/2
f 27/1/2 28/1/2 30/1/2
f 2/1/3 22/1/3 21/1/3
f 3/1/4 23/1/4 22/1/4
f 4/1/5 24/1/5 23/1/5
f 5/1/6 25/1/6 24/1/6
f 6/1/7 26/1/7 25/1/7
f 7/1/8 27/1/8 26/1/8
f 8/1/9 28/1/9 27/1/9
f 9/1/10 29/1/10 28/1/10
f 10/1/11 30/1/11 29/1/11
f 11/1/12 31/1/12 30/1/12
f 13/1/13 33/1/13 32/1/13
f 14/1/14 34/1/14 33/1/14
f 15/1/15 35/1/15 34/1/15
f 16/1/16 36/1/16 35/1/16
f 17/1/17 37/1/17 36/1/17
f 18/1/18 38/1/18 37/1/18
f 19/1/19 39/1/19 38/1/19
f 20/1/20 40/1/20 39/1/20
f 1/1/17 21/1/17 40/1/17
f 12/1/21 32/1/21 31/1/21
f 43/1/1 42/1/1 41/1/1
f 60/1/1 59/1/1 58/1/1
f 43/1/1 41/1/1 60/1/1
f 44/1/1 43/1/1 60/1/1
f 60/1/1 58/1/1 57/1/1
f 57/1/1 56/1/1 55/1/1
f 54/1/1 53/1/1 52/1/1
f 60/1/1 57/1/1 55/1/1
f 54/1/1 52/1/1 51/1/1
f 44/1/1 60/1/1 55/1/1
f 55/1/1 54/1/1 51/1/1
f 50/1/1 49/1/1 48/1/1
f 55/1/1 51/1/1 50/1/1
f 45/1/1 44/1/1 55/1/1
f 47/1/1 46/1/1 45/1/1
f 50/1/1 48/1/1 47/1/1
f 45/1/1 55/1/1 50/1/1
f 61/1/2 62/1/2 63/1/2
f 61/1/2 63/1/2 64/1/2
f 78/1/2 79/1/2 80/1/2
f 80/1/2 61/1/2 64/1/2
f 65/1/2 66/1/2 67/1/2
f 80/1/2 64/1/2 65/1/2
f 77/1/2 78/1/2 80/1/2
f 75/1/2 76/1/2 77/1/2
f 72/1/2 73/1/2 74/1/2
f 75/1/2 77/1/2 80/1/2
f 71/1/2 72/1/2 74/1/2
f 75/1/2 80/1/2 65/1/2
f 71/1/2 74/1/2 75/1/2
f 68/1/2 69/1/2 70/1/2
f 70/1/2 71/1/2 75/1/2
f 75/1/2 65/1/2 67/1/2
f 67/1/2 68/1/2 70/1/2
f 42/1/22 62/1/22 61/1/22
f 43/1/23 63/1/23 62/1/23
f 44/1/24 64/1/24 63/1/24
f 45/1/25 65/1/25 64/1/25
f 46/1/26 66/1/26 65/1/26
f 47/1/27 67/1/27 66/1/27
f 48/1/28 68/1/28 67/1/28
f 49/1/29 69/1/29 68/1/29
f 50/1/30 70/1/30 69/1/30
f 51/1/31 71/1/31 70/1/31
f 53/1/32 73/1/32 72/1/32
f 54/1/33 74/1/33 73/1/33
f 55/1/34 75/1/34 74/1/34
f 56/1/35 76/1/35 75/1/35
f 57/1/36 77/1/36 76/1/36
f 58/1/37 78/1/37 77/1/37
f 59/1/38 79/1/38 78/1/38
f 60/1/39 80/1/39 79/1/39
f 41/1/40 61/1/40 80/1/40
f 52/1/41 72/1/41 71/1/41
f 83/1/1 82/1/1 81/1/1
f 100/1/1 99/1/1 98/1/1
f 83/1/1 81/1/1 100/1/1
f 84/1/1 83/1/1 100/1/1
f 100/1/1 98/1/1 97/1/1
f 97/1/1 96/1/1 95/1/1
f 94/1/1 93/1/1 92/1/1
f 100/1/1 97/1/1 95/1/1
f 94/1/1 92/1/1 91/1/1
f 84/1/1 100/1/1 95/1/1
f 95/1/1 94/1/1 91/1/1
f 90/1/1 89/1/1 88/1/1
f 95/1/1 91/1/1 90/1/1
f 85/1/1 84/1/1 95/1/1
f 87/1/1 86/1/1 85/1/1
f 90/1/1 88/1/1 87/1/1
f 85/1/1 95/1/1 90/1/1
f 101/1/2 102/1/2 103/1/2
f 101/1/2 103/1/2 104/1/2
f 118/1/2 119/1/2 120/1/2
f 120/1/2 101/1/2 104/1/2
f 105/1/2 106/1/2 107/1/2
f 120/1/2 104/1/2 105/1/2
f 117/1/2 118/1/2 120/1/2
f 115/1/2 116/1/2 117/1/2
f 112/1/2 113/1/2 114/1/2
f 115/1/2 117/1/2 120/1/2
f 111/1/2 112/1/2 114/1/2
f 115/1/2 120/1/2 105/1/2
f 111/1/2 114/1/2 115/1/2
f 108/1/2 109/1/2 110/1/2
f 110/1/2 111/1/2 115/1/2
f 115/1/2 105/1/2 107/1/2
f 107/1/2 108/1/2 110/1/2
f 82/1/42 102/1/42 101/1/42
f 83/1/43 103/1/43 102/1/43
f 84/1/44 104/1/44 103/1/44
f 85/1/45 105/1/45 104/1/45
f 86/1/46 106/1/46 105/1/46
f 87/1/47 107/1/47 106/1/47
f 88/1/48 108/1/48 107/1/48
f 89/1/49 109/1/49 108/1/49
f 90/1/50 110/1/50 109/1/50
f 91/1/51 111/1/51 110/1/51
f 93/1/52 113/1/52 112/1/52
f 94/1/53 114/1/53 113/1/53
f 95/1/54 115/1/54 114/1/54
f 96/1/55 116/1/55 115/1/55
f 97/1/56 117/1/56 116/1/56
f 98/1/57 118/1/57 117/1/57
f 99/1/58 119/1/58 118/1/58
f 100/1/59 120/1/59 119/1/59
f 81/1/56 101/1/56 120/1/56
f 92/1/60 112/1/60 111/1/60
f 123/1/1 122/1/1 121/1/1
f 140/1/1 139/1/1 138/1/1
f 123/1/1 121/1/1 140/1/1
f 124/1/1 123/1/1 140/1/1
f 140/1/1 138/1/1 137/1/1
f 137/1/1 136/1/1 135/1/1
f 134/1/1 133/1/1 132/1/1
f 140/1/1 137/1/1 135/1/1
f 134/1/1 132/1/1 131/1/1
f 124/1/1 140/1/1 135/1/1
f 135/1/1 134/1/1 131/1/1
f 130/1/1 129/1/1 128/1/1
f 135/1/1 131/1/1 130/1/1
f 125/1/1 124/1/1 135/1/1
f 127/1/1 126/1/1 125/1/1
f 130/1/1 128/1/1 127/1/1
f 125/1/1 135/1/1 130/1/1
f 141/1/2 142/1/2 143/1/2
f 141/1/2 143/1/2 144/1/2
f 158/1/2 159/1/2 160/1/2
f 160/1/2 141/1/2 144/1/2
f 145/1/2 146/1/2 147/1/2
f 160/1/2 144/1/2 145/1/2
f 157/1/2 158/1/2 160/1/2
f 155/1/2 156/1/2 157/1/2
f 152/1/2 153/1/2 154/1/2
f 155/1/2 157/1/2 160/1/2
f 151/1/2 152/1/2 154/1/2
f 155/1/2 160/1/2 145/1/2
f 151/1/2 154/1/2 155/1/2
f 148/1/2 149/1/2 150/1/2
f 150/1/2 151/1/2 155/1/2
f 155/1/2 145/1/2 147/1/2
f 147/1/2 148/1/2 150/1/2
f 122/1/61 142/1/61 141/1/61
f 123/1/62 143/1/62 142/1/62
f 124/1/63 144/1/63 143/1/63
f 125/1/64 145/1/64 144/1/64
f 126/1/65 146/1/65 145/1/65
f 127/1/66 147/1/66 146/1/66
f 128/1/67 148/1/67 147/1/67
f 129/1/68 149/1/68 148/1/68
f 130/1/69 150/1/69 149/1/69
f 131/1/70 151/1/70 150/1/70
f 133/1/71 153/1/71 152/1/71
f 134/1/72 154/1/72 153/1/72
f 135/1/73 155/1/73 154/1/73
f 136/1/74 156/1/74 155/1/74
f 137/1/75 157/1/75 156/1/75
f 138/1/76 158/1/76 157/1/76
f 139/1/77 159/1/77 158/1/77
f 140/1/78 160/1/78 159/1/78
f 121/1/79 141/1/79 160/1/79
f 132/1/80 152/1/80 151/1/80
f 163/1/1 162/1/1 161/1/1
f 180/1/1 179/1/1 178/1/1
f 163/1/1 161/1/1 180/1/1
f 164/1/1 163/1/1 180/1/1
f 180/1/1 178/1/1 177/1/1
f 177/1/1 176/1/1 175/1/1
f 174/1/1 173/1/1 172/1/1
f 180/1/1 177/1/1 175/1/1
f 174/1/1 172/1/1 171/1/1
f 164/1/1 180/1/1 175/1/1
f 175/1/1 174/1/1 171/1/1
f 170/1/1 169/1/1 168/1/1
f 175/1/1 171/1/1 170/1/1
f 165/1/1 164/1/1 175/1/1
f 167/1/1 166/1/1 165/1/1
f 170/1/1 168/1/1 167/1/1
f 165/1/1 175/1/1 170/1/1
f 181/1/2 182/1/2 183/1/2
f 181/1/2 183/1/2 184/1/2
f 198/1/2 199/1/2 200/1/2
f 200/1/2 181/1/2 184/1/2
f 185/1/2 186/1/2 187/1/2
f 200/1/2 184/1/2 185/1/2
f 197/1/2 198/1/2 200/1/2
f 195/1/2 196/1/2 197/1/2
f 192/1/2 193/1/2 194/1/2
f 195/1/2 197/1/2 200/1/2
f 191/1/2 192/1/2 194/1/2
f 195/1/2 200/1/2 185/1/2
f 191/1/2 194/1/2 195/1/2
f 188/1/2 189/1/2 190/1/2
f 190/1/2 191/1/2 195/1/2
f 195/1/2 185/1/2 187/1/2
f 187/1/2 188/1/2 190/1/2
f 162/1/81 182/1/81 181/1/81
f 163/1/82 183/1/82 182/1/82
f 164/1/83 184/1/83 183/1/83
f 165/1/84 185/1/84 184/1/84
f 166/1/85 186/1/85 185/1/85
f 167/1/86 187/1/86 186/1/86
f 168/1/87 188/1/87 187/1/87
f 169/1/88 189/1/88 188/1/88
f 170/1/89 190/1/89 189/1/89
f 171/1/90 191/1/90 190/1/90
f 173/1/91 193/1/91 192/1/91
f 174/1/92 194/1/92 193/1/92
f 175/1/93 195/1/93 194/1/93
f 176/1/94 196/1/94 195/1/94
f 177/1/95 197/1/95 196/1/95
f 178/1/96 198/1/96 197/1/96
f 179/1/97 199/1/97 198/1/97
f 180/1/98 200/1/98 199/1/98
f 161/1/99 181/1/99 200/1/99
f 172/1/100 192/1/100 191/1/100
g cable_Mesh
v 0.308464 -0.108212 -0.153793
v -0.115418 0.088817 -0.253506
v -0.105233 -0.111670 -0.221436
v -0.116655 0.088817 -0.226407
v 0.287544 0.096630 -0.140023
v -0.102039 -0.106954 -0.247700
v 0.305725 -0.106559 -0.191455
v 0.279854 0.094134 -0.176409
v 0.300463 -0.102486 -0.152006
v -0.107851 0.082347 -0.252572
v -0.099081 -0.103893 -0.220144
v -0.109685 0.081703 -0.225504
v 0.280295 0.089858 -0.138760
v -0.094892 -0.100078 -0.246418
v 0.298813 -0.099545 -0.189712
v 0.273884 0.086192 -0.175275
vn 0.9705 0.1134 -0.2129
vn 0.0157 -0.9989 -0.0450
vn -0.9965 -0.0695 -0.0455
vn -0.0133 0.9999 -0.0006
vn -0.9764 -0.1150 0.1830
vn -0.0169 0.9968 0.0785
vn 0.9949 0.0730 0.0692
vn 0.0147 -0.9996 -0.0228
vn 0.1856 -0.0470 0.9815
vn -0.1679 -0.0309 0.9853
vn -0.1101 0.0184 0.9937
vn -0.2002 0.3826 0.9020
vn 0.1946 -0.0193 -0.9807
vn 0.1325 0.3601 -0.9234
vn -0.2414 0.0430 -0.9695
vn 0.1898 0.0807 -0.9785
vn 0.9890 0.1324 -0.0661
vn 0.0249 -0.9845 -0.1737
vn -0.9896 -0.0596 -0.1311
vn -0.0049 0.9977 -0.0674
vn -0.9902 -0.1355 0.0328
vn -0.0215 0.9899 0.1403
vn 0.9843 0.0610 0.1658
vn -0.0015 -0.9950 0.1002
vn 0.2122 -0.0450 0.9762
vn -0.1389 -0.4667 0.8734
vn -0.2240 0.0153 0.9745
vn -0.2146 -0.0866 0.9729
vn 0.1036 -0.0224 -0.9944
vn 0.1365 0.0428 -0.9897
vn -0.1984 0.0478 -0.9790
vn 0.1933 -0.2796 -0.9405
vt 0.000000 0.000000
s 0
g off
f 201/2/101 208/2/101 205/2/101
f 203/2/102 207/2/102 201/2/102
f 206/2/103 204/2/103 202/2/103
f 204/2/104 208/2/104 202/2/104
f 216/2/105 209/2/105 213/2/105
f 215/2/106 211/2/106 209/2/106
f 212/2/107 214/2/107 210/2/107
f 216/2/108 212/2/108 210/2/108
f 205/2/109 209/2/109 201/2/109
f 203/2/110 209/2/110 211/2/110
f 203/2/111 212/2/111 204/2/111
f 204/2/112 213/2/112 205/2/112
f 206/2/113 210/2/113 214/2/113
f 207/2/114 214/2/114 215/2/114
f 208/2/115 215/2/115 216/2/115
f 208/2/116 210/2/116 202/2/116
f 201/2/117 207/2/117 208/2/117
f 203/2/118 206/2/118 207/2/118
f 206/2/119 203/2/119 204/2/119
f 204/2/120 205/2/120 208/2/120
f 216/2/121 215/2/121 209/2/121
f 215/2/122 214/2/122 211/2/122
f 212/2/123 211/2/123 214/2/123
f 216/2/124 213/2/124 212/2/124
f 205/2/125 213/2/125 209/2/125
f 203/2/126 201/2/126 209/2/126
f 203/2/127 211/2/127 212/2/127
f 204/2/128 212/2/128 213/2/128
f 206/2/129 202/2/129 210/2/129
f 207/2/130 206/2/130 214/2/130
f 208/2/131 207/2/131 215/2/131
f 208/2/132 216/2/132 210/2/132
g cable.001_Mesh
v 0.215376 -0.095837 0.208736
v -0.245472 0.097000 0.109023
v -0.198321 -0.099295 0.161900
v -0.246708 0.097000 0.136122
v 0.168039 0.096415 0.222506
v -0.195126 -0.094579 0.135635
v 0.212638 -0.094184 0.171074
v 0.160350 0.093918 0.186120
v 0.207080 -0.090594 0.210659
v -0.237591 0.090960 0.110209
v -0.192913 -0.090979 0.163168
v -0.238988 0.090753 0.137297
v 0.161280 0.089141 0.223691
v -0.188735 -0.086994 0.136909
v 0.205230 -0.087737 0.172962
v 0.154811 0.085660 0.187180
vn 0.9442 0.2480 -0.2166
vn 0.0134 -0.9989 -0.0448
vn -0.9647 -0.2596 -0.0440
vn 0.0075 1.0000 0.0003
vn -0.9475 -0.2554 0.1922
vn -0.0100 0.9971 0.0761
vn 0.9610 0.2716 0.0516
vn -0.0119 -0.9999 -0.0082
vn 0.2156 -0.0168 0.9763
vn -0.1175 -0.0746 0.9903
vn -0.0569 0.1162 0.9916
vn -0.1976 0.3337 0.9217
vn 0.2731 -0.0690 -0.9595
vn 0.0803 0.3640 -0.9279
vn -0.2137 0.0180 -0.9767
vn 0.1868 0.0512 -0.9811
vn 0.9606 0.2717 -0.0579
vn 0.0161 -0.9845 -0.1748
vn -0.9530 -0.2562 -0.1619
vn 0.0164 0.9973 -0.0719
vn -0.9593 -0.2811 0.0258
vn -0.0117 0.9889 0.1482
vn 0.9447 0.2667 0.1908
vn -0.0255 -0.9947 0.0994
vn 0.1949 -0.0214 0.9806
vn -0.0953 -0.4721 0.8764
vn -0.3097 0.0566 0.9492
vn -0.2035 -0.0679 0.9767
vn 0.0545 -0.1233 -0.9909
vn 0.0909 0.0899 -0.9918
vn -0.2373 0.0117 -0.9714
vn 0.1834 -0.2452 -0.9520
vt 0.000000 0.000000
s 0
g off
f 217/3/133 224/3/133 221/3/133
f 219/3/134 223/3/134 217/3/134
f 222/3/135 220/3/135 218/3/135
f 220/3/136 224/3/136 218/3/136
f 232/3/137 225/3/137 229/3/137
f 231/3/138 227/3/138 225/3/138
f 228/3/139 230/3/139 226/3/139
f 232/3/140 228/3/140 226/3/140
f 221/3/141 225/3/141 217/3/141
f 219/3/142 225/3/142 227/3/142
f 219/3/143 228/3/143 220/3/143
f 221/3/144 228/3/144 229/3/144
f 222/3/145 226/3/145 230/3/145
f 222/3/146 231/3/146 223/3/146
f 224/3/147 231/3/147 232/3/147
f 224/3/148 226/3/148 218/3/148
f 217/3/149 223/3/149 224/3/149
f 219/3/150 222/3/150 223/3/150
f 222/3/151 219/3/151 220/3/151
f 220/3/152 221/3/152 224/3/152
f 232/3/153 231/3/153 225/3/153
f 231/3/154 230/3/154 227/3/154
f 228/3/155 227/3/155 230/3/155
f 232/3/156 229/3/156 228/3/156
f 221/3/157 229/3/157 225/3/157
f 219/3/158 217/3/158 225/3/158
f 219/3/159 227/3/159 228/3/159
f 221/3/160 220/3/160 228/3/160
f 222/3/161 218/3/161 226/3/161
f 222/3/162 230/3/162 231/3/162
f 224/3/163 223/3/163 231/3/163
f 224/3/164 232/3/164 226/3/164
