# Blender 4.3.2
# www.blender.org
mtllib qwartz.mtl
o Cylinder
v 0.208557 1.046016 -1.004638
v 1.002738 -1.000353 -0.217480
v 1.029297 1.005619 -0.223710
v 0.711202 1.000000 0.755017
v 0.755017 -1.000000 0.711202
v -0.235678 -0.999956 1.032811
v -0.208557 1.046016 1.004638
v -1.073410 -1.000781 -0.188540
v -1.029297 1.005619 0.223710
v -0.711202 1.000000 -0.755017
v 0.235678 -0.999956 -1.032811
v 0.294959 1.656718 -0.551021
v 0.569508 1.660693 0.303762
v -0.294959 1.656718 0.551021
v -0.569508 1.660693 -0.303762
v -0.413622 -0.320657 0.153410
v -1.114023 0.553533 -0.343273
v -1.054855 -0.795977 0.504286
v -1.288066 -1.074588 -0.240839
v -2.013400 -0.195353 -0.114637
v -0.647411 -0.598551 -0.591801
v -1.539512 0.630996 -0.389731
v -1.509981 0.538479 0.248467
v -1.916443 0.328981 0.230680
v -1.905595 0.245800 -0.598025
v 0.116628 -0.303729 -0.162919
v 0.271797 0.436744 -1.024726
v -0.453683 -0.805075 -0.591430
v 0.155685 -1.185896 -1.004793
v -0.289654 -0.323125 -1.752296
v 0.725938 -0.683914 -0.576950
v 0.492412 0.301686 -1.604949
v -0.288565 0.480148 -1.376880
v -0.242243 0.105982 -1.805404
v 0.375449 -0.080185 -1.828360
v 0.445635 -0.130690 -0.170993
v 1.309538 0.654653 0.200993
v 0.973576 -0.793910 -0.375057
v 1.114530 -0.958833 0.425040
v 2.023244 -0.300569 0.188358
v 0.587312 -0.295036 0.629095
v 1.739871 0.646586 0.263830
v 1.710097 0.434914 -0.345299
v 2.057996 0.150998 -0.257120
v 2.002846 0.242220 0.568971
v 0.412811 -0.495797 0.367242
v 0.148722 0.386916 1.175041
v 0.566108 -1.134269 0.940896
v -0.241615 -1.205377 1.113379
v 0.088313 -0.507478 1.961421
v -0.394822 -0.566279 0.540399
v 0.099024 0.418096 1.606037
v 0.682684 0.143652 1.578617
v 0.577593 -0.102456 1.949837
v -0.236562 0.068219 1.907279
v -0.561054 -0.521205 0.214486
v -1.115929 -0.029775 0.691972
v -0.364087 -0.737951 0.638211
v -0.763043 -1.015490 0.698601
v -0.912833 -0.497384 1.108594
v -0.960236 -0.798352 0.275182
v -0.755530 -0.066514 1.014161
v -1.239300 -0.322758 0.980331
v -0.502655 -0.480355 -0.349041
v -0.727902 -0.024398 -1.069283
v -0.828530 -0.860728 -0.469205
v -0.530995 -1.022748 -0.822847
v -0.949733 -0.633207 -1.186002
v -0.205369 -0.642048 -0.703042
v -1.147976 -0.254598 -0.994518
v -0.743626 -0.345322 -1.353837
v 0.922736 -0.538496 -0.111011
v 1.482922 -0.266252 -0.735077
v 0.517281 -0.367545 -0.378780
v 0.550519 -0.740758 -0.694132
v 0.895368 -0.265597 -1.032165
v 0.956307 -0.911414 -0.426679
v 1.134335 0.064185 -0.800973
v 1.264166 -0.387407 -1.083901
v 1.052197 -0.479219 0.978694
v 0.841383 -0.554628 1.153219
v 0.700235 -0.309630 1.030710
v 0.633430 -0.610537 0.413298
v 0.890738 -0.266705 0.824668
v 0.614099 -0.985856 0.812576
vn 0.7283 -0.0118 -0.6852
vn -0.8207 -0.0976 0.5630
vn 0.6897 0.0191 -0.7239
vn -0.6897 0.0191 0.7239
vn -0.9475 0.0842 -0.3084
vn 0.6432 0.3959 -0.6555
vn -0.8773 0.3844 -0.2873
vn 0.8773 0.3844 0.2873
vn -0.6432 0.3959 0.6555
vn 0.8112 0.4170 -0.4100
vn -0.6628 -0.6093 0.4353
vn 0.5846 0.7007 0.4090
vn -0.6494 -0.3308 0.6847
vn -0.6687 -0.4689 -0.5770
vn 0.6780 0.4927 0.5454
vn -0.6589 -0.6572 -0.3659
vn 0.8677 0.4423 0.2270
vn -0.3107 0.7479 0.5866
vn 0.1330 -0.6089 -0.7820
vn -0.0641 0.0626 -0.9960
vn -0.7084 0.6561 0.2602
vn 0.5213 -0.8130 -0.2594
vn -0.3982 0.7120 -0.5784
vn 0.5789 -0.5948 -0.5577
vn 0.5273 -0.4745 0.7049
vn -0.2156 0.6234 -0.7516
vn 0.1932 -0.7932 0.5776
vn 0.6338 0.6168 -0.4668
vn 0.5135 -0.6028 0.6107
vn -0.7318 -0.3584 0.5797
vn -0.3894 0.3769 -0.8404
vn 0.4444 -0.4734 0.7605
vn 0.4162 0.8302 -0.3709
vn 0.6337 -0.0623 0.7711
vn -0.5503 -0.6101 0.5700
vn 0.6673 0.7057 0.2381
vn -0.6022 -0.7846 -0.1472
vn -0.3117 0.7558 0.5759
vn -0.8854 -0.4647 0.0022
vn 0.1561 -0.5785 -0.8006
vn 0.7653 -0.3744 0.5236
vn -0.8455 0.2987 -0.4426
vn 0.4455 0.6021 0.6626
vn -0.6720 0.6847 -0.2820
vn -0.2621 -0.4258 -0.8660
vn -0.7552 -0.1121 0.6458
vn 0.7779 0.1484 -0.6106
vn 0.2864 -0.0025 0.9581
vn -0.4377 -0.0829 -0.8953
vn 0.9587 0.0015 0.2844
vn 0.0002 -1.0000 0.0001
vn -0.0000 1.0000 -0.0000
vn 0.2292 0.5914 0.7731
vn -0.2292 0.5914 -0.7731
vn -0.7009 0.6758 0.2283
vn 0.1512 0.2356 0.9600
vn 0.7009 0.6758 -0.2283
vn 0.6257 -0.7745 0.0931
vn 0.1933 0.2811 -0.9400
vn -0.2331 -0.3540 -0.9057
vn -0.6123 0.7905 0.0128
vn 0.8418 -0.3547 -0.4069
vn 0.1633 0.9774 0.1341
vn -0.9787 0.2028 -0.0332
vn 0.1636 0.3444 -0.9245
vn -0.7505 0.4121 0.5166
vn -0.9916 0.0560 -0.1169
vn 0.0617 -0.6876 0.7234
vn 0.0336 0.6509 -0.7584
vn -0.9798 0.0859 -0.1809
vn -0.0714 -0.1147 -0.9908
vn 0.1754 0.9715 -0.1594
vn -0.7813 -0.6241 0.0096
vn -0.1540 0.5010 0.8516
vn 0.1188 -0.2043 0.9717
vn 0.7751 0.6209 -0.1173
vn 0.9947 -0.0446 -0.0925
vn 0.0659 0.9415 -0.3304
vn 0.9977 -0.0100 0.0677
vn -0.1103 0.5520 0.8265
vn -0.0966 -0.6776 -0.7291
vn -0.8017 0.5722 -0.1728
vn -0.9830 -0.0943 0.1576
vn 0.2033 0.6628 0.7207
vn 0.4138 -0.7177 -0.5601
vn 0.4248 0.9051 -0.0165
vn -0.0368 0.0730 0.9967
vn -0.7703 0.6235 -0.1339
vn 0.8315 0.5450 -0.1077
vn -0.9256 0.0176 -0.3781
vn -0.8071 -0.5856 0.0756
vn 0.4569 -0.5986 0.6579
vn -0.4201 0.7202 0.5521
vn -0.2155 0.2835 0.9345
vn -0.6194 0.3017 0.7248
vn 0.7897 0.3849 -0.4777
vn 0.6450 -0.3357 -0.6865
vn -0.6096 -0.5430 0.5775
vn -0.4487 0.6051 -0.6577
vn -0.6595 0.0344 -0.7509
vn -0.0987 0.7643 0.6373
vn 0.7066 -0.6763 -0.2082
vn 0.0637 -0.7946 -0.6037
vn 0.4094 0.6548 0.6353
vn 0.6178 0.5373 -0.5741
vn 0.0617 0.5426 -0.8377
vn -0.9926 0.1089 0.0543
vn -0.5283 0.7843 -0.3251
vn 0.6026 -0.6655 0.4404
vn 0.7465 -0.5025 -0.4362
vt 0.783550 1.000000
vt 0.783771 0.500000
vt 0.955038 0.500000
vt 0.283550 1.000000
vt 0.223996 0.500000
vt 0.464763 0.500000
vt 0.962661 1.000000
vt 0.467680 1.000000
vt 0.119810 1.000000
vt 0.917884 1.000000
vt 0.170881 1.000000
vt 0.670881 1.000000
vt 0.619810 1.000000
vt 0.420980 1.000000
vt 0.826868 1.000000
vt 0.723996 0.500000
vt 0.283550 1.000000
vt 0.223996 0.500000
vt 0.464763 0.500000
vt 0.619810 1.000000
vt 0.434094 1.000000
vt 0.136853 1.000000
vt 0.783550 1.000000
vt 0.326868 1.000000
vt 0.223996 0.500000
vt 0.464763 0.500000
vt 0.930458 1.000000
vt 0.634529 1.000000
vt 0.619810 1.000000
vt 0.434094 1.000000
vt 0.826868 1.000000
vt 0.223996 0.500000
vt 0.136853 1.000000
vt 0.283550 1.000000
vt 0.223996 0.500000
vt 0.464763 0.500000
vt 0.434094 1.000000
vt 0.136852 1.000000
vt 0.854778 1.000000
vt 0.723996 0.500000
vt 0.955038 0.500000
vt 0.283550 1.000000
vt 0.223996 0.500000
vt 0.498139 1.000000
vt 0.723996 0.500000
vt 0.955038 0.500000
vt 0.136853 1.000000
vt 0.854778 1.000000
vt 0.723996 0.500000
vt 0.498139 1.000000
vt 0.136852 1.000000
vt 0.835866 0.500000
vt 0.821698 1.000000
vt 0.550942 1.000000
vt 0.340574 0.500000
vt 0.321699 1.000000
vt 0.069908 1.000000
vt 0.630190 0.500000
vt 0.012817 1.000000
vt 0.011857 0.500000
vt 0.700513 0.028331
vt 0.546395 0.281621
vt 0.799487 0.471669
vt 0.976054 0.298683
vt 0.918376 0.092355
vt 0.147015 0.059351
vt 0.439767 0.147351
vt 0.352985 0.440649
vt 0.060233 0.352649
vt 0.546395 0.281621
vt 0.799487 0.471669
vt 0.953605 0.218379
vt 0.700513 0.028331
vt 0.988143 1.000000
vt 0.147015 0.059351
vt 0.407645 0.081624
vt 0.393222 0.385636
vt 0.060233 0.352649
vt 0.012817 1.000000
vt 0.868725 1.000000
vt 0.546395 0.281621
vt 0.953605 0.218379
vt 0.700513 0.028331
vt 0.352985 0.440649
vt 0.092355 0.418376
vt 0.106778 0.114363
vt 0.439767 0.147351
vt 0.370879 1.000000
vt 0.546395 0.281621
vt 0.799487 0.471669
vt 0.700513 0.028331
vt 0.147015 0.059351
vt 0.393222 0.385636
vt 0.060233 0.352649
vt 0.868725 1.000000
vt 0.546395 0.281621
vt 0.953605 0.218379
vt 0.700513 0.028331
vt 0.147015 0.059351
vt 0.393222 0.385636
vt 0.060233 0.352649
vt 0.546395 0.281621
vt 0.799487 0.471669
vt 0.953605 0.218379
vt 0.700513 0.028331
vt 0.799487 0.471669
vt 0.953605 0.218378
vt 0.700513 0.028331
vt 0.393222 0.385636
vt 0.060233 0.352649
vt 0.236894 0.067032
vt 0.546395 0.281621
vt 0.799487 0.471669
vt 0.953605 0.218378
vt 0.700513 0.028331
vt 0.393222 0.385636
vt 0.060233 0.352649
vt 0.236894 0.067031
vt 0.305820 0.052957
vt 0.467291 0.315212
vt 0.194179 0.447044
vt 0.032710 0.184788
vt 0.393222 0.385636
vt 0.060233 0.352649
vt 0.236894 0.067031
vt 0.967925 1.000000
s 0
f 3/1/1 2/2/1 11/3/1
f 9/4/2 8/5/2 6/6/2
f 1/7/3 3/1/3 11/3/3
f 7/8/4 9/4/4 6/6/4
f 8/5/5 9/4/5 10/9/5
f 1/7/6 12/10/6 3/1/6
f 9/4/7 15/11/7 10/9/7
f 3/1/8 13/12/8 4/13/8
f 7/8/9 14/14/9 9/4/9
f 17/15/10 16/16/10 21/3/10
f 20/17/11 19/18/11 18/19/11
f 16/16/12 17/15/12 23/20/12
f 24/21/13 20/17/13 18/19/13
f 19/18/14 20/17/14 25/22/14
f 27/23/15 26/16/15 31/3/15
f 30/24/16 29/25/16 28/26/16
f 32/27/17 27/23/17 31/3/17
f 26/16/18 27/23/18 33/28/18
f 29/25/19 30/24/19 35/9/19
f 43/29/20 44/30/20 38/19/20 36/16/20
f 37/31/21 36/16/21 41/3/21
f 40/4/22 39/32/22 38/19/22
f 36/16/23 37/31/23 43/29/23
f 44/30/24 40/4/24 38/19/24
f 39/32/25 40/4/25 45/33/25
f 47/15/26 46/16/26 51/3/26
f 50/34/27 49/35/27 48/36/27
f 46/16/28 47/15/28 53/13/28
f 54/37/29 50/34/29 48/36/29
f 49/35/30 50/34/30 55/38/30
f 57/39/31 56/40/31 61/41/31
f 60/42/32 59/43/32 58/6/32
f 56/40/33 57/39/33 62/44/33
f 62/44/34 60/42/34 58/6/34
f 59/43/35 60/42/35 63/38/35
f 65/39/36 64/45/36 69/46/36
f 68/4/37 67/25/37 66/6/37
f 64/45/38 65/39/38 70/44/38
f 70/44/39 68/4/39 66/6/39
f 67/25/40 68/4/40 71/47/40
f 73/48/41 72/49/41 77/46/41
f 76/42/42 75/32/42 74/19/42
f 72/49/43 73/48/43 78/50/43
f 78/50/44 76/42/44 74/19/44
f 75/32/45 76/42/45 79/51/45
f 85/52/46 81/53/46 82/54/46
f 83/55/47 84/56/47 80/57/47
f 4/13/48 7/8/48 6/6/48 5/58/48
f 10/9/49 1/59/49 11/60/49 8/5/49
f 3/1/50 4/13/50 5/58/50 2/2/50
f 6/61/51 8/62/51 11/63/51 2/64/51 5/65/51
f 14/66/52 13/67/52 12/68/52 15/69/52
f 13/12/53 14/14/53 7/8/53 4/13/53
f 15/11/54 12/59/54 1/59/54 10/9/54
f 9/4/55 14/14/55 15/11/55
f 23/20/56 24/21/56 18/19/56 16/16/56
f 3/1/57 12/10/57 13/12/57
f 19/70/58 21/71/58 16/72/58 18/73/58
f 21/3/59 25/74/59 17/15/59
f 21/60/60 19/18/60 25/22/60
f 24/75/61 23/76/61 22/77/61 25/78/61
f 35/9/62 32/79/62 31/60/62 29/25/62
f 17/15/63 22/80/63 23/20/63
f 20/17/64 24/21/64 25/22/64
f 17/15/65 25/74/65 22/80/65
f 28/26/66 26/16/66 33/28/66
f 28/26/67 33/28/67 30/24/67
f 29/81/68 31/63/68 26/82/68 28/83/68
f 32/84/69 35/85/69 34/86/69 33/87/69
f 30/24/70 33/28/70 34/88/70
f 30/24/71 34/88/71 35/9/71
f 27/23/72 32/27/72 33/28/72
f 39/89/73 41/90/73 36/72/73 38/91/73
f 41/3/74 45/74/74 37/31/74
f 41/60/75 39/32/75 45/33/75
f 44/92/76 43/76/76 42/93/76 45/94/76
f 53/13/77 54/37/77 48/36/77 46/16/77
f 37/31/78 42/95/78 43/29/78
f 40/4/79 44/30/79 45/33/79
f 37/31/80 45/74/80 42/95/80
f 49/96/81 51/90/81 46/97/81 48/98/81
f 51/3/82 55/74/82 47/15/82
f 51/60/83 49/35/83 55/38/83
f 54/99/84 53/76/84 52/100/84 55/101/84
f 59/102/85 61/103/85 56/104/85 58/105/85
f 47/15/86 52/80/86 53/13/86
f 50/34/87 54/37/87 55/38/87
f 47/15/88 55/74/88 52/80/88
f 58/6/89 56/40/89 62/44/89
f 61/41/90 63/74/90 57/39/90
f 61/60/91 59/43/91 63/38/91
f 67/89/92 69/106/92 64/107/92 66/108/92
f 57/109/93 63/110/93 62/111/93
f 60/42/94 62/44/94 63/38/94
f 66/6/95 64/45/95 70/44/95
f 69/46/96 71/74/96 65/39/96
f 69/60/97 67/25/97 71/47/97
f 75/112/98 77/113/98 72/114/98 74/115/98
f 65/116/99 71/117/99 70/118/99
f 68/4/100 70/44/100 71/47/100
f 74/19/101 72/49/101 78/50/101
f 77/46/102 79/74/102 73/48/102
f 77/60/103 75/32/103 79/51/103
f 82/119/104 81/120/104 80/121/104 84/122/104
f 73/123/105 79/124/105 78/125/105
f 76/42/106 78/50/106 79/51/106
f 83/55/107 85/52/107 82/54/107
f 83/55/108 82/54/108 84/56/108
f 85/52/109 80/126/109 81/53/109
f 85/60/110 83/55/110 80/57/110
